<?xml version="1.0" standalone="no"?>
<!DOCTYPE svg PUBLIC "-//W3C//DTD SVG 20010904//EN"
 "http://www.w3.org/TR/2001/REC-SVG-20010904/DTD/svg10.dtd">
<svg version="1.0" xmlns="http://www.w3.org/2000/svg"
 width="500.000000pt" height="500.000000pt" viewBox="0 0 500.000000 500.000000"
 preserveAspectRatio="xMidYMid meet">

<g transform="translate(0.000000,500.000000) scale(0.100000,-0.100000)"
fill="#000000" stroke="none">
<path d="M1953 2959 c-16 -10 -42 -42 -58 -70 -33 -61 -37 -147 -11 -217 l15
-43 -33 7 c-39 7 -56 -10 -27 -25 24 -13 111 -14 130 -2 17 11 6 31 -19 31
-23 0 -50 74 -50 139 0 86 64 171 129 171 l25 0 -29 -30 c-25 -26 -26 -30 -11
-36 11 -4 27 2 44 19 80 76 212 56 268 -39 22 -38 26 -54 22 -103 -3 -39 -11
-68 -27 -90 -18 -25 -21 -35 -12 -44 15 -15 34 7 63 72 16 36 19 55 13 104
l-6 60 33 -21 c60 -38 68 -67 68 -244 0 -151 1 -158 20 -158 19 0 20 7 20 161
0 180 7 206 69 242 l31 18 -6 -58 c-5 -48 -2 -68 16 -111 26 -59 46 -80 61
-65 8 8 4 20 -12 42 -16 22 -24 49 -27 91 -4 50 -1 66 22 104 53 91 174 113
256 47 21 -17 44 -31 49 -31 18 0 12 22 -11 47 l-21 23 23 0 c62 0 119 -71
128 -161 6 -62 -22 -149 -48 -149 -25 0 -36 -20 -19 -31 19 -12 106 -11 130 2
30 15 12 32 -27 24 -39 -7 -39 -9 -18 41 9 22 16 65 16 100 -1 71 -22 122 -72
169 -31 30 -32 30 -162 32 -124 3 -133 2 -179 -23 -26 -15 -50 -32 -53 -40 -3
-7 -24 -18 -48 -24 -25 -7 -58 -27 -81 -51 l-39 -38 -25 30 c-28 33 -72 59
-101 59 -10 0 -29 12 -43 26 -49 52 -84 62 -220 62 -106 0 -131 -3 -156 -19z"/>
<path d="M1944 2819 c-10 -17 13 -36 27 -22 12 12 4 33 -11 33 -5 0 -12 -5
-16 -11z"/>
<path d="M3024 2819 c-10 -17 13 -36 27 -22 12 12 4 33 -11 33 -5 0 -12 -5
-16 -11z"/>
<path d="M1745 2583 c20 -111 127 -171 190 -108 32 32 35 85 4 85 -15 0 -19
-5 -14 -19 3 -10 -2 -28 -13 -41 -17 -21 -23 -23 -53 -14 -40 11 -79 64 -79
105 0 23 -5 29 -21 29 -19 0 -21 -4 -14 -37z"/>
<path d="M2155 2610 c-65 -14 -105 -59 -113 -126 -4 -36 -2 -44 12 -44 9 0 16
8 16 20 0 38 28 89 59 104 75 39 152 -1 166 -86 9 -48 35 -52 35 -5 0 81 -93
155 -175 137z"/>
<path d="M2780 2607 c-61 -15 -110 -76 -110 -137 0 -43 26 -39 35 6 16 89 89
128 164 89 30 -15 61 -68 61 -104 0 -12 6 -21 15 -21 19 0 20 51 1 88 -34 66
-99 97 -166 79z"/>
<path d="M3220 2592 c0 -68 -89 -138 -127 -99 -9 9 -17 26 -18 39 -1 13 -9 24
-18 26 -28 6 -22 -54 8 -83 62 -63 177 1 187 105 2 27 -1 35 -14 38 -14 3 -18
-3 -18 -26z"/>
<path d="M1720 2270 l0 -160 30 0 30 0 0 160 0 160 -30 0 -30 0 0 -160z"/>
<path d="M2250 2270 l0 -160 35 0 35 0 0 65 c0 55 3 66 21 75 35 19 49 -3 49
-77 l0 -64 33 3 32 3 -1 72 c0 87 -17 113 -74 113 -20 0 -41 -5 -48 -12 -9 -9
-12 5 -12 65 l0 77 -35 0 -35 0 0 -160z"/>
<path d="M3320 2355 c0 -72 -1 -75 -19 -65 -68 36 -148 -18 -138 -93 10 -72
77 -109 138 -77 13 7 19 7 19 0 0 -5 14 -10 30 -10 l30 0 0 160 0 160 -30 0
-30 0 0 -75z m-12 -117 c28 -28 7 -78 -33 -78 -27 0 -45 18 -45 45 0 27 18 45
45 45 12 0 26 -5 33 -12z"/>
<path d="M2656 2404 c-9 -8 -16 -19 -16 -24 0 -11 29 -40 40 -40 11 0 40 29
40 40 0 11 -29 40 -40 40 -5 0 -16 -7 -24 -16z"/>
<path d="M1543 2282 c-51 -39 -49 -122 2 -156 44 -29 155 -12 155 24 0 14 -36
21 -61 12 -29 -11 -69 2 -69 23 0 12 14 15 70 15 l70 0 -6 28 c-14 64 -108 96
-161 54z m97 -42 c0 -6 -16 -10 -35 -10 -38 0 -46 13 -18 29 19 10 53 -2 53
-19z"/>
<path d="M1833 2276 c-23 -20 -28 -32 -28 -71 0 -39 5 -51 28 -71 39 -34 105
-33 144 1 31 27 29 28 -52 29 -39 1 -50 5 -53 19 -3 15 5 17 62 17 64 0 66 1
66 25 0 69 -108 102 -167 51z m107 -36 c0 -6 -16 -10 -35 -10 -38 0 -46 13
-18 29 19 10 53 -2 53 -19z"/>
<path d="M2020 2160 l0 -140 30 0 c30 0 30 1 30 55 0 52 1 55 19 45 33 -17 78
-11 108 14 38 33 40 102 4 140 -26 28 -76 35 -112 16 -13 -7 -19 -7 -19 0 0 5
-13 10 -30 10 l-30 0 0 -140z m138 78 c7 -7 12 -21 12 -33 0 -12 -5 -26 -12
-33 -7 -7 -21 -12 -33 -12 -12 0 -26 5 -33 12 -7 7 -12 21 -12 33 0 12 5 26
12 33 7 7 21 12 33 12 12 0 26 -5 33 -12z"/>
<path d="M2480 2205 l0 -95 30 0 c30 0 30 1 30 53 0 65 17 92 53 85 20 -4 28
0 36 19 6 13 11 26 11 28 0 11 -67 4 -79 -7 -11 -10 -14 -10 -18 0 -3 6 -18
12 -34 12 l-29 0 0 -95z"/>
<path d="M2650 2205 l0 -95 30 0 30 0 0 95 0 95 -30 0 -30 0 0 -95z"/>
<path d="M2759 2271 c-63 -63 -19 -161 73 -161 41 0 88 21 88 40 0 15 -36 21
-62 11 -19 -7 -31 -6 -47 5 -36 26 -24 34 49 34 77 0 83 6 55 59 -17 34 -33
41 -87 41 -30 0 -46 -7 -69 -29z m111 -31 c0 -6 -16 -10 -35 -10 -37 0 -51 25
-17 33 20 4 52 -10 52 -23z"/>
<path d="M2950 2205 l0 -95 30 0 30 0 0 65 c0 53 3 66 19 75 42 22 61 -7 61
-92 0 -47 1 -48 31 -48 l31 0 -4 81 c-3 66 -7 83 -23 95 -23 17 -87 18 -103 2
-9 -9 -12 -9 -12 0 0 7 -13 12 -30 12 l-30 0 0 -95z"/>
<path d="M3425 2177 c-26 -20 -13 -67 18 -67 45 0 65 50 28 70 -25 13 -24 13
-46 -3z"/>
</g>
</svg>
